<svg  version="1.1" xmlns="http://www.w3.org/2000/svg" xmlns:xlink="http://www.w3.org/1999/xlink">
<defs>

   <symbol class="svg" id="order1" viewBox="0 0 100 100">
      <path d="M87.25 61.525H38.475V12.751a1.5 1.5 0 0 0-1.5-1.5H12.75a1.5 1.5 0 0 0-1.5 1.5v74.5a1.5 1.5 0 0 0 1.5 1.5h74.5a1.5 1.5 0 0 0 1.5-1.5V63.025a1.5 1.5 0 0 0-1.5-1.5zM35.475 14.251v47.274H14.25V51.501h7.279a1.5 1.5 0 1 0 0-3H14.25v-9.72h13.342a1.5 1.5 0 1 0 0-3H14.25v-9.72h7.279a1.5 1.5 0 1 0 0-3H14.25v-8.81h21.225zm50.275 71.5h-71.5V64.525h71.5v21.226z" fill="white"/>
      <path d="M75.134 81.484c3.5 0 6.347-2.848 6.347-6.348s-2.848-6.347-6.347-6.347a6.355 6.355 0 0 0-6.348 6.347c0 3.5 2.848 6.348 6.348 6.348zm0-9.695a3.35 3.35 0 0 1 3.347 3.347 3.352 3.352 0 0 1-3.347 3.348 3.352 3.352 0 0 1-3.348-3.348 3.352 3.352 0 0 1 3.348-3.347z" fill="white"/>
   </symbol>

   <symbol class="svg" id="order2" viewBox="0 0 100 100">
       <path d="M84.395 7.881H15.959a1.5 1.5 0 0 0-1.5 1.5v81.591a1.5 1.5 0 0 0 1.5 1.5h68.437a1.5 1.5 0 0 0 1.5-1.5V9.381a1.501 1.501 0 0 0-1.501-1.5zm-1.5 81.59H17.459v-78.59h65.437l-.001 78.59z" fill="white"/>
       <path d="M25.254 40.175h50.3a1.5 1.5 0 0 0 1.5-1.5V18.216a1.5 1.5 0 0 0-1.5-1.5h-50.3a1.5 1.5 0 0 0-1.5 1.5v20.458a1.5 1.5 0 0 0 1.5 1.501zm1.5-20.458h47.3v17.458h-47.3V19.717zm9.214 27.759H25.782a1.5 1.5 0 0 0-1.5 1.5v10.187a1.5 1.5 0 0 0 1.5 1.5h10.186a1.5 1.5 0 0 0 1.5-1.5V48.976a1.5 1.5 0 0 0-1.5-1.5zm-1.5 10.187h-7.186v-7.187h7.186v7.187zm1.5 9.551H25.782a1.5 1.5 0 0 0-1.5 1.5V78.9a1.5 1.5 0 0 0 1.5 1.5h10.186a1.5 1.5 0 0 0 1.5-1.5V68.714a1.5 1.5 0 0 0-1.5-1.5zm-1.5 10.186h-7.186v-7.187h7.186V77.4zm40.557-29.924H64.84a1.5 1.5 0 0 0-1.5 1.5v10.187a1.5 1.5 0 0 0 1.5 1.5h10.186a1.5 1.5 0 0 0 1.5-1.5V48.976a1.501 1.501 0 0 0-1.501-1.5zm-1.5 10.187H66.34v-7.187h7.186l-.001 7.187zm1.5 9.551H64.84a1.5 1.5 0 0 0-1.5 1.5V78.9a1.5 1.5 0 0 0 1.5 1.5h10.186a1.5 1.5 0 0 0 1.5-1.5V68.714a1.5 1.5 0 0 0-1.501-1.5zm-1.5 10.186H66.34v-7.187h7.186l-.001 7.187zM55.831 47.141H45.648a1.5 1.5 0 0 0-1.5 1.5v10.187a1.5 1.5 0 0 0 1.5 1.5h10.183a1.5 1.5 0 0 0 1.5-1.5V48.641a1.5 1.5 0 0 0-1.5-1.5zm-1.5 10.187h-7.183v-7.187h7.183v7.187zm1.5 9.55H45.648a1.5 1.5 0 0 0-1.5 1.5v10.188a1.5 1.5 0 0 0 1.5 1.5h10.183a1.5 1.5 0 0 0 1.5-1.5V68.378a1.5 1.5 0 0 0-1.5-1.5zm-1.5 10.187h-7.183v-7.188h7.183v7.188z" fill="white"/>
   </symbol>

   <symbol class="svg" id="order3" viewBox="0 0 100 100">
      <path d="m79.938 28.201-.002-.019a1.482 1.482 0 0 0-.175-.448 1.492 1.492 0 0 0-.232-.314l-.003-.004-15.964-15.969-.003-.002a1.539 1.539 0 0 0-.397-.278 1.475 1.475 0 0 0-.364-.13c-.008-.002-.015-.001-.023-.002a1.542 1.542 0 0 0-.274-.028H21.532a1.5 1.5 0 0 0-1.5 1.5V87.49a1.5 1.5 0 0 0 1.5 1.5h56.933a1.5 1.5 0 0 0 1.5-1.5V28.475a1.399 1.399 0 0 0-.027-.274zm-15.936-12.07 10.843 10.847H64.002V16.131zM23.033 85.992V14.009h37.969v14.469a1.5 1.5 0 0 0 1.5 1.5h14.464v56.015l-53.933-.001z" fill="white"/>
      <path d="M48.264 31.897H29.517a1.5 1.5 0 1 0 0 3h18.747a1.5 1.5 0 1 0 0-3zm0 7.117H29.517a1.5 1.5 0 1 0 0 3h18.747a1.5 1.5 0 1 0 0-3zm0 7.118H29.517a1.5 1.5 0 1 0 0 3h18.747a1.5 1.5 0 1 0 0-3zM62.95 62.418c-4.849 0-8.793 3.942-8.793 8.789 0 4.848 3.945 8.791 8.793 8.791s8.792-3.943 8.792-8.791c0-4.847-3.944-8.789-8.792-8.789zm0 14.58a5.799 5.799 0 0 1-5.793-5.791 5.798 5.798 0 0 1 5.793-5.789 5.798 5.798 0 0 1 5.792 5.789 5.797 5.797 0 0 1-5.792 5.791z" fill="white"/>
   </symbol>

   <symbol class="svg" id="order4" viewBox="0 0 100 100">
      <path d="m85.309 54.327-22.768-3.308L52.36 30.39a1.498 1.498 0 0 0-2.69 0L39.49 51.019l-22.768 3.308a1.5 1.5 0 0 0-.831 2.559l16.473 16.057-3.888 22.674a1.5 1.5 0 0 0 2.177 1.582l20.361-10.706 20.364 10.706a1.504 1.504 0 0 0 1.58-.114c.462-.336.693-.905.597-1.468l-3.892-22.674 16.475-16.057a1.501 1.501 0 0 0-.829-2.559zM67.007 71.345a1.5 1.5 0 0 0-.432 1.328l3.511 20.455-18.372-9.658a1.504 1.504 0 0 0-1.396 0l-18.369 9.658 3.507-20.455a1.5 1.5 0 0 0-.432-1.328L20.164 56.86l20.54-2.984a1.5 1.5 0 0 0 1.129-.82l9.184-18.61 9.185 18.61a1.5 1.5 0 0 0 1.129.82l20.54 2.984-14.864 14.485zM25.549 38.009a1.501 1.501 0 0 0 .635-2.859l-15.767-7.367a1.5 1.5 0 1 0-1.269 2.719l15.767 7.367c.205.095.421.14.634.14zm66.027-9.502a1.504 1.504 0 0 0-1.994-.725l-15.767 7.367a1.501 1.501 0 0 0 .635 2.859c.213 0 .429-.045.634-.141L90.851 30.5a1.498 1.498 0 0 0 .725-1.993zm-40.56-5.523a1.5 1.5 0 0 0 1.5-1.5V4.131a1.5 1.5 0 1 0-3 0v17.353a1.5 1.5 0 0 0 1.5 1.5z" fill="white"/>
   </symbol>

   <symbol class="svg" id="order4" viewBox="0 0 100 100">
      <path d="m85.309 54.327-22.768-3.308L52.36 30.39a1.498 1.498 0 0 0-2.69 0L39.49 51.019l-22.768 3.308a1.5 1.5 0 0 0-.831 2.559l16.473 16.057-3.888 22.674a1.5 1.5 0 0 0 2.177 1.582l20.361-10.706 20.364 10.706a1.504 1.504 0 0 0 1.58-.114c.462-.336.693-.905.597-1.468l-3.892-22.674 16.475-16.057a1.501 1.501 0 0 0-.829-2.559zM67.007 71.345a1.5 1.5 0 0 0-.432 1.328l3.511 20.455-18.372-9.658a1.504 1.504 0 0 0-1.396 0l-18.369 9.658 3.507-20.455a1.5 1.5 0 0 0-.432-1.328L20.164 56.86l20.54-2.984a1.5 1.5 0 0 0 1.129-.82l9.184-18.61 9.185 18.61a1.5 1.5 0 0 0 1.129.82l20.54 2.984-14.864 14.485zM25.549 38.009a1.501 1.501 0 0 0 .635-2.859l-15.767-7.367a1.5 1.5 0 1 0-1.269 2.719l15.767 7.367c.205.095.421.14.634.14zm66.027-9.502a1.504 1.504 0 0 0-1.994-.725l-15.767 7.367a1.501 1.501 0 0 0 .635 2.859c.213 0 .429-.045.634-.141L90.851 30.5a1.498 1.498 0 0 0 .725-1.993zm-40.56-5.523a1.5 1.5 0 0 0 1.5-1.5V4.131a1.5 1.5 0 1 0-3 0v17.353a1.5 1.5 0 0 0 1.5 1.5z" fill="white"/>
   </symbol>


   <symbol class="svg" id="whatsapp" viewBox="0 0 50 50" width="50px" height="50px">
      <path d="M25,2C12.318,2,2,12.318,2,25c0,3.96,1.023,7.854,2.963,11.29L2.037,46.73c-0.096,0.343-0.003,0.711,0.245,0.966 C2.473,47.893,2.733,48,3,48c0.08,0,0.161-0.01,0.24-0.029l10.896-2.699C17.463,47.058,21.21,48,25,48c12.682,0,23-10.318,23-23 S37.682,2,25,2z M36.57,33.116c-0.492,1.362-2.852,2.605-3.986,2.772c-1.018,0.149-2.306,0.213-3.72-0.231 c-0.857-0.27-1.957-0.628-3.366-1.229c-5.923-2.526-9.791-8.415-10.087-8.804C15.116,25.235,13,22.463,13,19.594 s1.525-4.28,2.067-4.864c0.542-0.584,1.181-0.73,1.575-0.73s0.787,0.005,1.132,0.021c0.363,0.018,0.85-0.137,1.329,1.001 c0.492,1.168,1.673,4.037,1.819,4.33c0.148,0.292,0.246,0.633,0.05,1.022c-0.196,0.389-0.294,0.632-0.59,0.973 s-0.62,0.76-0.886,1.022c-0.296,0.291-0.603,0.606-0.259,1.19c0.344,0.584,1.529,2.493,3.285,4.039 c2.255,1.986,4.158,2.602,4.748,2.894c0.59,0.292,0.935,0.243,1.279-0.146c0.344-0.39,1.476-1.703,1.869-2.286 s0.787-0.487,1.329-0.292c0.542,0.194,3.445,1.604,4.035,1.896c0.59,0.292,0.984,0.438,1.132,0.681 C37.062,30.587,37.062,31.755,36.57,33.116z"/>
   </symbol>


   <symbol class="svg" id="telegram" viewBox="0 0 50 50" width="50px" height="50px">
      <path d="M25,2c12.703,0,23,10.297,23,23S37.703,48,25,48S2,37.703,2,25S12.297,2,25,2z M32.934,34.375	c0.423-1.298,2.405-14.234,2.65-16.783c0.074-0.772-0.17-1.285-0.648-1.514c-0.578-0.278-1.434-0.139-2.427,0.219	c-1.362,0.491-18.774,7.884-19.78,8.312c-0.954,0.405-1.856,0.847-1.856,1.487c0,0.45,0.267,0.703,1.003,0.966	c0.766,0.273,2.695,0.858,3.834,1.172c1.097,0.303,2.346,0.04,3.046-0.395c0.742-0.461,9.305-6.191,9.92-6.693	c0.614-0.502,1.104,0.141,0.602,0.644c-0.502,0.502-6.38,6.207-7.155,6.997c-0.941,0.959-0.273,1.953,0.358,2.351	c0.721,0.454,5.906,3.932,6.687,4.49c0.781,0.558,1.573,0.811,2.298,0.811C32.191,36.439,32.573,35.484,32.934,34.375z"/>
   </symbol>

   <symbol class="svg" id="right" viewBox="0 0 50 75" width="50px" height="75px">
      <path fill-rule="evenodd"  fill="#000" d="M12.107,12.500 L0.793,1.186 L1.500,0.479 L12.814,11.793 L13.521,12.500 L12.814,13.207 L1.500,24.521 L0.793,23.814 L12.107,12.500 Z"/>
   </symbol>

   <symbol class="svg" id="left" viewBox="0 0 50 75"  width="50px" height="75px">
      <path fill-rule="evenodd"  fill="#000" d="M1.453,12.000 L12.988,23.284 L12.267,23.989 L0.732,12.705 L0.011,12.000 L0.732,11.295 L12.267,0.010 L12.988,0.715 L1.453,12.000 Z"/>
   </symbol>

   <symbol class="svg" id="logo" viewBox="0 0 163 38">
      <path class="st0" d="M11,23h20v-6H17V9h14V3H11V23z M6,3H0v31h31v-6H6V3z M50.7,9.8h-3.1c-1.5,0-2.6,0.4-3.4,1.2
			c-0.8,0.8-1.2,1.9-1.2,3.4v8.9c0,1.5,0.4,2.6,1.2,3.4c0.8,0.8,1.9,1.2,3.4,1.2h3.1c1.5,0,2.6-0.4,3.4-1.2c0.8-0.8,1.2-1.9,1.2-3.4
			V22c0-0.4-0.2-0.6-0.6-0.6h-2.4c-0.4,0-0.6,0.2-0.6,0.6v1.1c0,0.6-0.1,1-0.4,1.3c-0.3,0.3-0.7,0.4-1.3,0.4h-1.9
			c-0.6,0-1-0.1-1.2-0.4c-0.3-0.3-0.4-0.7-0.4-1.3v-8.5c0-0.6,0.1-1,0.4-1.3c0.3-0.3,0.7-0.4,1.2-0.4h1.9c0.6,0,1,0.1,1.3,0.4
			c0.3,0.3,0.4,0.7,0.4,1.3v1.1c0,0.4,0.2,0.6,0.6,0.6h2.4c0.4,0,0.6-0.2,0.6-0.6v-1.3c0-1.5-0.4-2.6-1.2-3.4
			C53.3,10.2,52.2,9.8,50.7,9.8z M65.9,9.8h-3.1c-1.5,0-2.6,0.4-3.4,1.2c-0.8,0.8-1.2,1.9-1.2,3.4v8.9c0,1.5,0.4,2.6,1.2,3.4
			c0.8,0.8,1.9,1.2,3.4,1.2h3.1c1.5,0,2.6-0.4,3.4-1.2c0.8-0.8,1.2-1.9,1.2-3.4v-8.9c0-1.5-0.4-2.6-1.2-3.4
			C68.5,10.2,67.3,9.8,65.9,9.8z M66.9,23.1c0,0.6-0.1,1-0.4,1.3c-0.3,0.3-0.7,0.4-1.3,0.4h-2c-0.6,0-1-0.1-1.3-0.4
			c-0.2-0.3-0.4-0.7-0.4-1.3v-8.5c0-0.6,0.1-1,0.4-1.3c0.2-0.3,0.7-0.4,1.3-0.4h2c0.6,0,1,0.1,1.3,0.4c0.3,0.3,0.4,0.7,0.4,1.3V23.1
			z M86,9.8h-2.3c-0.4,0-0.6,0.2-0.6,0.6v10.4H83l-5.7-10.6c-0.1-0.3-0.4-0.4-0.8-0.4h-2.1c-0.4,0-0.6,0.2-0.6,0.6v16.8
			c0,0.4,0.2,0.6,0.6,0.6h2.3c0.4,0,0.6-0.2,0.6-0.6V16.9h0.1l5.6,10.4c0.2,0.4,0.5,0.6,0.9,0.6h2c0.4,0,0.6-0.2,0.6-0.6V10.4
			C86.6,10,86.4,9.8,86,9.8z M99.8,18c-1.2-0.5-2.6-0.8-4.2-1c-1.5-0.1-2.3-0.6-2.3-1.5v-0.5c0-0.8,0.1-1.4,0.4-1.7
			c0.3-0.3,0.8-0.4,1.6-0.4h1.1c0.7,0,1.3,0.1,1.5,0.4c0.3,0.3,0.4,0.8,0.4,1.5V15c0,0.4,0.2,0.6,0.6,0.6h2.4c0.4,0,0.6-0.2,0.6-0.6
			v-0.5c0-1.5-0.4-2.6-1.2-3.4c-0.8-0.8-2-1.2-3.4-1.2h-2.8c-1.5,0-2.6,0.4-3.4,1.2c-0.8,0.8-1.2,1.9-1.2,3.4v1
			c0,1.2,0.2,2.1,0.7,2.8c0.4,0.7,1,1.2,1.6,1.5c0.7,0.3,1.4,0.5,2.1,0.6c0.8,0.2,1.5,0.3,2.1,0.3c0.7,0.1,1.2,0.2,1.6,0.5
			c0.4,0.3,0.7,0.7,0.7,1.2v0.3c0,0.8-0.1,1.3-0.4,1.6c-0.3,0.3-0.8,0.4-1.5,0.4h-1.3c-0.7,0-1.3-0.1-1.5-0.4
			c-0.3-0.3-0.4-0.7-0.4-1.5v-0.2c0-0.4-0.2-0.6-0.6-0.6h-2.4c-0.4,0-0.6,0.2-0.6,0.6v0.6c0,1.5,0.4,2.6,1.2,3.4
			c0.8,0.8,2,1.2,3.4,1.2h3.1c1.5,0,2.6-0.4,3.4-1.2c0.8-0.8,1.2-1.9,1.2-3.4v-1c0-1.1-0.2-2-0.7-2.8C101,18.8,100.5,18.3,99.8,18z
			 M115,9.8h-10.6c-0.4,0-0.6,0.2-0.6,0.6v1.9c0,0.4,0.2,0.6,0.6,0.6h3.2c0.2,0,0.3,0.1,0.3,0.3v14c0,0.4,0.2,0.6,0.6,0.6h2.4
			c0.4,0,0.6-0.2,0.6-0.6v-14c0-0.2,0.1-0.3,0.3-0.3h3.2c0.4,0,0.6-0.2,0.6-0.6v-1.9C115.6,10,115.4,9.8,115,9.8z M127.1,20.9v-0.1
			c1.7-0.7,2.5-2.1,2.5-4.2v-2.2c0-1.5-0.4-2.6-1.2-3.4c-0.8-0.8-2-1.2-3.4-1.2h-6.7c-0.4,0-0.6,0.2-0.6,0.6v16.8
			c0,0.4,0.2,0.6,0.6,0.6h2.4c0.4,0,0.6-0.2,0.6-0.6v-5.7c0-0.2,0.1-0.3,0.3-0.3h1.9l2.8,6c0.1,0.2,0.2,0.4,0.4,0.5
			c0.1,0.1,0.4,0.1,0.7,0.1h2.3c0.5,0,0.6-0.2,0.5-0.7L127.1,20.9z M126.1,16.8c0,0.6-0.1,1-0.4,1.2c-0.3,0.3-0.7,0.4-1.3,0.4h-2.7
			c-0.2,0-0.3-0.1-0.3-0.3v-4.8c0-0.2,0.1-0.3,0.3-0.3h2.7c0.6,0,1,0.1,1.3,0.4c0.3,0.3,0.4,0.7,0.4,1.3V16.8z M141.7,10.4
			c-0.1-0.4-0.4-0.6-0.8-0.6h-3.7c-0.4,0-0.7,0.2-0.8,0.6l-4.4,16.8c-0.1,0.4,0,0.6,0.3,0.6h2.7c0.2,0,0.3,0,0.4-0.1
			c0.1-0.1,0.1-0.2,0.2-0.5l0.8-3.1h5.5l0.8,3.1c0,0.2,0.1,0.4,0.2,0.5c0.1,0.1,0.2,0.1,0.4,0.1h2.7c0.3,0,0.4-0.2,0.3-0.6
			L141.7,10.4z M137,21.3l2-8.1h0.1l2,8.1H137z M160.2,9.8h-2.4c-0.4,0-0.6,0.2-0.6,0.6v12.7c0,0.6-0.1,1-0.4,1.3
			c-0.3,0.3-0.7,0.4-1.3,0.4h-1.9c-0.6,0-1-0.1-1.2-0.4c-0.3-0.3-0.4-0.7-0.4-1.3V10.4c0-0.4-0.2-0.6-0.6-0.6h-2.4
			c-0.4,0-0.6,0.2-0.6,0.6v12.9c0,1.5,0.4,2.6,1.2,3.4c0.8,0.8,1.9,1.2,3.4,1.2h3.1c1.5,0,2.6-0.4,3.4-1.2c0.8-0.8,1.2-1.9,1.2-3.4
			V10.4C160.8,10,160.6,9.8,160.2,9.8z" fill="#fff"/>
   </symbol>

</defs>
</svg>